<mxfile host="app.diagrams.net" modified="2021-05-12T05:49:23.133Z" agent="5.0 (Windows NT 10.0; Win64; x64) AppleWebKit/537.36 (KHTML, like Gecko) Chrome/90.0.4430.93 Safari/537.36" etag="iThcNXOADbI-K1NSykgR" version="14.6.12" type="github">
  <diagram id="6Cmy_OJPE_gC6r0TOcEK" name="Page-1">
    <mxGraphModel dx="2249" dy="762" grid="1" gridSize="10" guides="1" tooltips="1" connect="1" arrows="1" fold="1" page="1" pageScale="1" pageWidth="827" pageHeight="1169" math="0" shadow="0">
      <root>
        <mxCell id="0" />
        <mxCell id="1" parent="0" />
        <mxCell id="LpMyZovRpZkSS5u4zfX3-6" style="orthogonalLoop=1;jettySize=auto;html=1;entryX=1;entryY=1;entryDx=0;entryDy=0;exitX=0.287;exitY=-0.003;exitDx=0;exitDy=0;exitPerimeter=0;" parent="1" source="LpMyZovRpZkSS5u4zfX3-38" target="LpMyZovRpZkSS5u4zfX3-4" edge="1">
          <mxGeometry relative="1" as="geometry">
            <mxPoint x="595" y="220" as="sourcePoint" />
          </mxGeometry>
        </mxCell>
        <mxCell id="LpMyZovRpZkSS5u4zfX3-7" style="edgeStyle=none;orthogonalLoop=1;jettySize=auto;html=1;exitX=0.124;exitY=0.856;exitDx=0;exitDy=0;exitPerimeter=0;entryX=0.617;entryY=0.003;entryDx=0;entryDy=0;entryPerimeter=0;" parent="1" source="LpMyZovRpZkSS5u4zfX3-4" target="LpMyZovRpZkSS5u4zfX3-31" edge="1">
          <mxGeometry relative="1" as="geometry">
            <mxPoint x="183.98000000000002" y="221.10000000000002" as="targetPoint" />
          </mxGeometry>
        </mxCell>
        <mxCell id="LpMyZovRpZkSS5u4zfX3-4" value="&lt;font style=&quot;font-size: 14px&quot;&gt;&lt;b&gt;Browser&lt;/b&gt;&lt;/font&gt;" style="ellipse;whiteSpace=wrap;html=1;" parent="1" vertex="1">
          <mxGeometry x="210" y="90" width="270" height="90" as="geometry" />
        </mxCell>
        <mxCell id="vep_De73C5PHQTmgVMdR-10" style="edgeStyle=orthogonalEdgeStyle;rounded=0;orthogonalLoop=1;jettySize=auto;html=1;" edge="1" parent="1" source="LpMyZovRpZkSS5u4zfX3-31" target="LpMyZovRpZkSS5u4zfX3-39">
          <mxGeometry relative="1" as="geometry">
            <Array as="points">
              <mxPoint x="75" y="765" />
            </Array>
          </mxGeometry>
        </mxCell>
        <mxCell id="vep_De73C5PHQTmgVMdR-11" value="Update&lt;br&gt;request" style="edgeLabel;html=1;align=center;verticalAlign=middle;resizable=0;points=[];" vertex="1" connectable="0" parent="vep_De73C5PHQTmgVMdR-10">
          <mxGeometry x="-0.5276" y="2" relative="1" as="geometry">
            <mxPoint as="offset" />
          </mxGeometry>
        </mxCell>
        <mxCell id="vep_De73C5PHQTmgVMdR-12" style="edgeStyle=orthogonalEdgeStyle;rounded=0;orthogonalLoop=1;jettySize=auto;html=1;" edge="1" parent="1" source="LpMyZovRpZkSS5u4zfX3-31" target="LpMyZovRpZkSS5u4zfX3-38">
          <mxGeometry relative="1" as="geometry">
            <Array as="points">
              <mxPoint x="410" y="370" />
              <mxPoint x="410" y="370" />
            </Array>
          </mxGeometry>
        </mxCell>
        <mxCell id="vep_De73C5PHQTmgVMdR-13" value="Form to display" style="edgeLabel;html=1;align=center;verticalAlign=middle;resizable=0;points=[];" vertex="1" connectable="0" parent="vep_De73C5PHQTmgVMdR-12">
          <mxGeometry x="-0.3474" relative="1" as="geometry">
            <mxPoint x="18" as="offset" />
          </mxGeometry>
        </mxCell>
        <mxCell id="LpMyZovRpZkSS5u4zfX3-31" value="&lt;&lt;subsystem&gt;&gt;&#xa;Controller" style="swimlane;startSize=50;" parent="1" vertex="1">
          <mxGeometry x="-130" y="262" width="410" height="304" as="geometry" />
        </mxCell>
        <mxCell id="LpMyZovRpZkSS5u4zfX3-66" value="&amp;lt;&amp;lt;subsystem&amp;gt;&amp;gt;&lt;br&gt;Rendering Controller" style="whiteSpace=wrap;html=1;" parent="LpMyZovRpZkSS5u4zfX3-31" vertex="1">
          <mxGeometry x="10" y="141" width="120" height="70" as="geometry" />
        </mxCell>
        <mxCell id="LpMyZovRpZkSS5u4zfX3-67" value="&amp;lt;&amp;lt;subsystem&amp;gt;&amp;gt;&lt;br&gt;Cam Controller" style="whiteSpace=wrap;html=1;" parent="LpMyZovRpZkSS5u4zfX3-31" vertex="1">
          <mxGeometry x="280" y="141" width="120" height="70" as="geometry" />
        </mxCell>
        <mxCell id="LpMyZovRpZkSS5u4zfX3-68" value="&amp;lt;&amp;lt;subsystem&amp;gt;&amp;gt;&lt;br&gt;Sound Controller" style="whiteSpace=wrap;html=1;" parent="LpMyZovRpZkSS5u4zfX3-31" vertex="1">
          <mxGeometry x="80" y="223" width="120" height="70" as="geometry" />
        </mxCell>
        <mxCell id="LpMyZovRpZkSS5u4zfX3-121" value="&amp;lt;&amp;lt;subsystem&amp;gt;&amp;gt;&lt;br&gt;Meeting Room Controller" style="whiteSpace=wrap;html=1;" parent="LpMyZovRpZkSS5u4zfX3-31" vertex="1">
          <mxGeometry x="10" y="60" width="120" height="70" as="geometry" />
        </mxCell>
        <mxCell id="Wo7y8Mavbgrlb9PrF5e9-1" value="&amp;lt;&amp;lt;subsystem&amp;gt;&amp;gt;&lt;br&gt;Customizing Controller" style="whiteSpace=wrap;html=1;" parent="LpMyZovRpZkSS5u4zfX3-31" vertex="1">
          <mxGeometry x="145" y="60" width="120" height="70" as="geometry" />
        </mxCell>
        <mxCell id="Wo7y8Mavbgrlb9PrF5e9-2" value="&amp;lt;&amp;lt;subsystem&amp;gt;&amp;gt;&lt;br&gt;Main Controller" style="whiteSpace=wrap;html=1;" parent="LpMyZovRpZkSS5u4zfX3-31" vertex="1">
          <mxGeometry x="280" y="60" width="120" height="70" as="geometry" />
        </mxCell>
        <mxCell id="Wo7y8Mavbgrlb9PrF5e9-4" value="&amp;lt;&amp;lt;subsystem&amp;gt;&amp;gt;&lt;br&gt;Character Controller" style="whiteSpace=wrap;html=1;" parent="LpMyZovRpZkSS5u4zfX3-31" vertex="1">
          <mxGeometry x="145" y="141" width="120" height="70" as="geometry" />
        </mxCell>
        <mxCell id="Wo7y8Mavbgrlb9PrF5e9-28" value="&amp;lt;&amp;lt;subsystem&amp;gt;&amp;gt;&lt;br&gt;Page Controller" style="whiteSpace=wrap;html=1;" parent="LpMyZovRpZkSS5u4zfX3-31" vertex="1">
          <mxGeometry x="220" y="223" width="120" height="70" as="geometry" />
        </mxCell>
        <mxCell id="vep_De73C5PHQTmgVMdR-14" style="edgeStyle=orthogonalEdgeStyle;rounded=0;orthogonalLoop=1;jettySize=auto;html=1;" edge="1" parent="1" source="LpMyZovRpZkSS5u4zfX3-38" target="LpMyZovRpZkSS5u4zfX3-31">
          <mxGeometry relative="1" as="geometry">
            <Array as="points">
              <mxPoint x="400" y="440" />
              <mxPoint x="400" y="440" />
            </Array>
          </mxGeometry>
        </mxCell>
        <mxCell id="vep_De73C5PHQTmgVMdR-15" value="User events" style="edgeLabel;html=1;align=center;verticalAlign=middle;resizable=0;points=[];" vertex="1" connectable="0" parent="vep_De73C5PHQTmgVMdR-14">
          <mxGeometry x="0.2526" y="-1" relative="1" as="geometry">
            <mxPoint x="6" as="offset" />
          </mxGeometry>
        </mxCell>
        <mxCell id="LpMyZovRpZkSS5u4zfX3-38" value="&lt;&lt;subsystem&gt;&gt;&#xa;View" style="swimlane;startSize=50;" parent="1" vertex="1">
          <mxGeometry x="450" y="262" width="400" height="280" as="geometry" />
        </mxCell>
        <mxCell id="LpMyZovRpZkSS5u4zfX3-93" value="&lt;&lt;subsystem&gt;&gt;&#xa;Meeting Room View" style="swimlane;startSize=35;" parent="LpMyZovRpZkSS5u4zfX3-38" vertex="1">
          <mxGeometry x="13" y="64" width="250" height="200" as="geometry" />
        </mxCell>
        <mxCell id="LpMyZovRpZkSS5u4zfX3-94" value="&amp;lt;&amp;lt;subsystem&amp;gt;&amp;gt;&lt;br&gt;Chatting Panel" style="whiteSpace=wrap;html=1;" parent="LpMyZovRpZkSS5u4zfX3-93" vertex="1">
          <mxGeometry x="10" y="47" width="110" height="65" as="geometry" />
        </mxCell>
        <mxCell id="LpMyZovRpZkSS5u4zfX3-96" style="edgeStyle=none;orthogonalLoop=1;jettySize=auto;html=1;exitX=1;exitY=0.5;exitDx=0;exitDy=0;" parent="LpMyZovRpZkSS5u4zfX3-93" source="LpMyZovRpZkSS5u4zfX3-94" target="LpMyZovRpZkSS5u4zfX3-94" edge="1">
          <mxGeometry relative="1" as="geometry" />
        </mxCell>
        <mxCell id="Wo7y8Mavbgrlb9PrF5e9-7" value="&amp;lt;&amp;lt;subsystem&amp;gt;&amp;gt;&lt;br&gt;Shared Screen Panel" style="whiteSpace=wrap;html=1;" parent="LpMyZovRpZkSS5u4zfX3-93" vertex="1">
          <mxGeometry x="130" y="47" width="110" height="65" as="geometry" />
        </mxCell>
        <mxCell id="Wo7y8Mavbgrlb9PrF5e9-8" value="&amp;lt;&amp;lt;subsystem&amp;gt;&amp;gt;&lt;br&gt;Character Panel" style="whiteSpace=wrap;html=1;" parent="LpMyZovRpZkSS5u4zfX3-93" vertex="1">
          <mxGeometry x="10" y="124" width="110" height="65" as="geometry" />
        </mxCell>
        <mxCell id="Wo7y8Mavbgrlb9PrF5e9-9" value="&amp;lt;&amp;lt;subsystem&amp;gt;&amp;gt;&lt;br&gt;Option UI" style="whiteSpace=wrap;html=1;" parent="LpMyZovRpZkSS5u4zfX3-93" vertex="1">
          <mxGeometry x="130" y="124" width="110" height="65" as="geometry" />
        </mxCell>
        <mxCell id="9Y2opS0K8rb7u_Eqx5ES-21" value="&amp;lt;&amp;lt;subsystem&amp;gt;&amp;gt;&lt;br&gt;Main Page View" style="whiteSpace=wrap;html=1;" parent="LpMyZovRpZkSS5u4zfX3-38" vertex="1">
          <mxGeometry x="276" y="75" width="110" height="80" as="geometry" />
        </mxCell>
        <mxCell id="9Y2opS0K8rb7u_Eqx5ES-23" value="&amp;lt;&amp;lt;subsystem&amp;gt;&amp;gt;&lt;br&gt;Customization View" style="whiteSpace=wrap;html=1;" parent="LpMyZovRpZkSS5u4zfX3-38" vertex="1">
          <mxGeometry x="277" y="170" width="110" height="80" as="geometry" />
        </mxCell>
        <mxCell id="vep_De73C5PHQTmgVMdR-7" style="edgeStyle=orthogonalEdgeStyle;rounded=0;orthogonalLoop=1;jettySize=auto;html=1;" edge="1" parent="1" source="LpMyZovRpZkSS5u4zfX3-39" target="LpMyZovRpZkSS5u4zfX3-38">
          <mxGeometry relative="1" as="geometry">
            <Array as="points">
              <mxPoint x="660" y="765" />
            </Array>
          </mxGeometry>
        </mxCell>
        <mxCell id="vep_De73C5PHQTmgVMdR-8" value="Change&amp;nbsp;&lt;br&gt;notification" style="edgeLabel;html=1;align=center;verticalAlign=middle;resizable=0;points=[];" vertex="1" connectable="0" parent="vep_De73C5PHQTmgVMdR-7">
          <mxGeometry x="0.6836" y="4" relative="1" as="geometry">
            <mxPoint x="2" y="72" as="offset" />
          </mxGeometry>
        </mxCell>
        <mxCell id="LpMyZovRpZkSS5u4zfX3-39" value="&lt;&lt;subsystem&gt;&gt;&#xa;Model" style="swimlane;startSize=40;" parent="1" vertex="1">
          <mxGeometry x="160" y="620" width="403" height="290" as="geometry" />
        </mxCell>
        <mxCell id="Wo7y8Mavbgrlb9PrF5e9-27" value="&amp;lt;&amp;lt;subsystem&amp;gt;&amp;gt;&lt;br&gt;Account Data" style="whiteSpace=wrap;html=1;" parent="LpMyZovRpZkSS5u4zfX3-39" vertex="1">
          <mxGeometry x="16" y="204" width="115" height="70" as="geometry" />
        </mxCell>
        <mxCell id="9Y2opS0K8rb7u_Eqx5ES-12" value="&lt;&lt;subsystem&gt;&gt;&#xa;Meeting room Model" style="swimlane;startSize=40;" parent="LpMyZovRpZkSS5u4zfX3-39" vertex="1">
          <mxGeometry x="16" y="51" width="370" height="140" as="geometry" />
        </mxCell>
        <mxCell id="9Y2opS0K8rb7u_Eqx5ES-15" style="edgeStyle=none;orthogonalLoop=1;jettySize=auto;html=1;exitX=1;exitY=0.5;exitDx=0;exitDy=0;" parent="9Y2opS0K8rb7u_Eqx5ES-12" edge="1">
          <mxGeometry relative="1" as="geometry">
            <mxPoint x="120" y="95" as="sourcePoint" />
            <mxPoint x="120" y="95" as="targetPoint" />
          </mxGeometry>
        </mxCell>
        <mxCell id="Wo7y8Mavbgrlb9PrF5e9-20" value="&amp;lt;&amp;lt;subsystem&amp;gt;&amp;gt;&lt;br&gt;Meeting Room Data" style="whiteSpace=wrap;html=1;" parent="9Y2opS0K8rb7u_Eqx5ES-12" vertex="1">
          <mxGeometry x="13.5" y="55" width="106.5" height="70" as="geometry" />
        </mxCell>
        <mxCell id="vep_De73C5PHQTmgVMdR-1" value="&amp;lt;&amp;lt;subsystem&amp;gt;&amp;gt;&lt;br&gt;Meeting Room Participant Data" style="whiteSpace=wrap;html=1;" vertex="1" parent="9Y2opS0K8rb7u_Eqx5ES-12">
          <mxGeometry x="130" y="55" width="106.5" height="70" as="geometry" />
        </mxCell>
        <mxCell id="vep_De73C5PHQTmgVMdR-2" value="&amp;lt;&amp;lt;subsystem&amp;gt;&amp;gt;&lt;br&gt;Meeting Room&lt;br&gt;Option Data" style="whiteSpace=wrap;html=1;" vertex="1" parent="9Y2opS0K8rb7u_Eqx5ES-12">
          <mxGeometry x="250" y="55" width="106.5" height="70" as="geometry" />
        </mxCell>
        <mxCell id="vep_De73C5PHQTmgVMdR-5" value="&amp;lt;&amp;lt;subsystem&amp;gt;&amp;gt;&lt;br&gt;Chatting Log Data" style="whiteSpace=wrap;html=1;" vertex="1" parent="LpMyZovRpZkSS5u4zfX3-39">
          <mxGeometry x="143.5" y="204" width="115" height="70" as="geometry" />
        </mxCell>
        <mxCell id="vep_De73C5PHQTmgVMdR-6" value="&amp;lt;&amp;lt;subsystem&amp;gt;&amp;gt;&lt;br&gt;Character Customization Data" style="whiteSpace=wrap;html=1;" vertex="1" parent="LpMyZovRpZkSS5u4zfX3-39">
          <mxGeometry x="271" y="204" width="115" height="70" as="geometry" />
        </mxCell>
      </root>
    </mxGraphModel>
  </diagram>
</mxfile>
